{"title":"The.Vow.2012.CAM.XviD-INFERNO","uid":7040608,"size":784558810,"categoryP":"video","categoryS":"movies","magnet":"?xt=urn:btih:2ffadf7eae24c3bf474619b03b7aa39c3fdfc394&amp;dn=The.Vow.2012.CAM.XviD-INFERNO&amp;tr=udp%3A%2F%2Ftracker.openbittorrent.com%3A80&amp;tr=udp%3A%2F%2Fopen.demonii.com%3A1337&amp;tr=udp%3A%2F%2Ftracker.coppersurfer.tk%3A6969&amp;tr=udp%3A%2F%2Fexodus.desync.com%3A6969","seeders":0,"leechers":0,"uploader":"TvTeam","files":5,"time":1329523825,"description":". \n &lt;a href=&quot;\nhttp://www.torrenting.com&quot; rel=&quot;nofollow&quot; target=&quot;_NEW&quot;&gt;\nhttp://www.torrenting.com&lt;/a&gt;          :     Once &amp; For all ;)\n\n\n               www . Torrenting . Com \n\n(((((((((((((= Enjoy No RAR releases =))))))))))))))))))))\n\n\n...................................NFO:....................................\n\n.[center][img]http://lookpic.com/O/i2/1910/Fe16RchP.jpeg[/img][/center]\n[img]http://lookpic.com/O/i2/298/l4OrvnSi.png[/img]\nhttp://www.imdb.com/title/tt1606389/\n[b]\n\nSo we got a nice cam of The Vow here\nfor you.Not to much to say here\ndid the normal rotate,crop, resize\nand adjusted this and that , came out really nice.\nAudio is cam but it's very good which we still filtered\nto make even better. Had to do a pretty big crop\non this one to remove some subs , still see\nalittle of them throughout. So enjoy. :)\n\n\nThe.Vow.2012.CAM.XviD-INFERNO\n\n\nFormat                           : AVI\nFormat/Info                      : Audio Video Interleave\nFile size                        : 740 MiB\nDuration                         : 1h 39mn\nOverall bit rate                 : 1 040 Kbps\n\nVideo\nID                               : 0\nFormat                           : MPEG-4 Visual\nFormat profile                   : Advanced Simple@L5\nFormat settings, BVOP            : 2\nFormat settings, QPel            : No\nFormat settings, GMC             : No warppoints\nFormat settings, Matrix          : Default (MPEG)\nMuxing mode                      : Packed bitstream\nCodec ID                         : XVID\nCodec ID/Hint                    : XviD\nDuration                         : 1h 39mn\nBit rate                         : 900 Kbps\nWidth                            : 640 pixels\nHeight                           : 272 pixels\nDisplay aspect ratio             : 2.35:1\nFrame rate                       : 29.970 fps\nColor space                      : YUV\nChroma subsampling               : 4:2:0\nBit depth                        : 8 bits\nScan type                        : Progressive\nCompression mode                 : Lossy\nBits/(Pixel*Frame)               : 0.173\nStream size                      : 641 MiB (87%)\nWriting library                  : XviD 64\n\nAudio\nID                               : 1\nFormat                           : MPEG Audio\nFormat version                   : Version 1\nFormat profile                   : Layer 3\nCodec ID                         : 55\nCodec ID/Hint                    : MP3\nDuration                         : 1h 39mn\nBit rate mode                    : Constant\nBit rate                         : 128 Kbps\nChannel(s)                       : 2 channels\nSampling rate                    : 48.0 KHz\nCompression mode                 : Lossy\nDelay relative to video          : 22ms\nStream size                      : 91.1 MiB (12%)\nAlignment                        : Split accross interleaves\nInterleave, duration             : 33 ms (1.00 video frame)\nInterleave, preload duration     : 500 ms[/b]\n\n[IMG]http://lookpic.com/O/i2/1964/WcslQxoJ.png[/IMG]\n[center][img]http://lookpic.com/O/i2/1738/iS8fbQnr.png[/img][/center]\n[center][img]http://lookpic.com/O/i2/526/JXNPWrNj.png[/img][/center]\n[center][img]http://lookpic.com/O/i2/915/Qilyqm5V.png[/img][/center]\n[center][img]http://lookpic.com/O/i2/320/NYzbyqPB.png[/img][/center]\n[center][img]http://lookpic.com/O/i2/91/W7dciGwx.png[/img][/center]","torrent":{"xt":"urn:btih:2ffadf7eae24c3bf474619b03b7aa39c3fdfc394","amp;dn":"The.Vow.2012.CAM.XviD-INFERNO","amp;tr":["udp%3A%2F%2Ftracker.openbittorrent.com%3A80","udp%3A%2F%2Fopen.demonii.com%3A1337","udp%3A%2F%2Ftracker.coppersurfer.tk%3A6969","udp%3A%2F%2Fexodus.desync.com%3A6969"],"infoHash":"2ffadf7eae24c3bf474619b03b7aa39c3fdfc394","infoHashBuffer":{"type":"Buffer","data":[47,250,223,126,174,36,195,191,71,70,25,176,59,122,163,156,63,223,195,148]},"announce":[],"urlList":[]}}